<?xml version="1.0" standalone="no"?>
<!DOCTYPE svg PUBLIC "-//W3C//DTD SVG 20010904//EN"
 "http://www.w3.org/TR/2001/REC-SVG-20010904/DTD/svg10.dtd">
<svg version="1.0" xmlns="http://www.w3.org/2000/svg"
 width="1350.000000pt" height="1350.000000pt" viewBox="0 0 1350.000000 1350.000000"
 preserveAspectRatio="xMidYMid meet">
<metadata>
Created by potrace 1.14, written by Peter Selinger 2001-2017
</metadata>
<g transform="translate(0.000000,1350.000000) scale(0.100000,-0.100000)"
fill="#000000" stroke="none">
<path d="M8949 13041 c-64 -21 -162 -77 -201 -115 -51 -49 -92 -124 -159 -289
-28 -67 -75 -183 -105 -257 -30 -74 -69 -164 -87 -200 -30 -60 -35 -65 -67
-68 -19 -2 -53 2 -74 8 -22 6 -48 14 -58 16 -10 2 -26 6 -35 9 -167 44 -231
59 -358 84 -82 16 -188 35 -235 41 -140 19 -153 20 -205 30 -72 13 -119 19
-220 26 -121 8 -690 8 -790 0 -44 -3 -118 -8 -165 -11 -88 -5 -193 -15 -221
-20 -9 -2 -40 -6 -70 -10 -30 -3 -70 -10 -89 -15 -19 -5 -48 -11 -65 -14 -162
-26 -449 -93 -647 -150 -87 -25 -166 -46 -176 -46 -31 0 -59 40 -102 145 -23
55 -48 111 -55 125 -7 14 -21 45 -30 70 -9 25 -51 126 -93 225 -66 155 -83
187 -127 231 -192 198 -521 144 -642 -105 -24 -50 -27 -67 -27 -156 0 -115 9
-149 90 -333 30 -67 54 -127 54 -133 0 -10 50 -129 110 -264 20 -46 40 -112
40 -137 0 -10 -34 -35 -97 -70 -54 -29 -113 -62 -133 -73 -217 -124 -486 -315
-757 -540 -7 -5 -26 -21 -41 -35 -271 -240 -517 -488 -656 -664 -22 -28 -45
-57 -53 -66 -108 -131 -413 -563 -413 -586 0 -4 -15 -30 -34 -58 -18 -28 -61
-105 -96 -171 -34 -66 -74 -138 -89 -160 -25 -37 -30 -40 -72 -39 -25 1 -65
11 -89 22 -25 11 -76 32 -115 46 -133 50 -180 69 -249 103 -38 18 -75 33 -83
33 -7 0 -43 14 -80 32 -65 31 -73 32 -193 32 -112 0 -131 -3 -180 -26 -68 -31
-139 -102 -176 -176 -26 -51 -28 -64 -28 -176 -1 -108 2 -126 23 -170 29 -59
125 -155 184 -185 23 -11 76 -34 117 -50 41 -16 110 -45 153 -65 42 -20 82
-36 89 -36 12 0 208 -84 298 -128 69 -34 71 -47 30 -184 -17 -57 -33 -119 -36
-138 -3 -19 -21 -93 -39 -165 -34 -135 -41 -169 -50 -245 -3 -25 -10 -79 -15
-120 -5 -41 -12 -99 -15 -129 -4 -30 -8 -61 -10 -70 -1 -9 -6 -45 -10 -81 -4
-36 -9 -74 -11 -85 -15 -81 -26 -782 -13 -845 4 -19 10 -62 13 -95 4 -33 9
-78 11 -100 3 -22 7 -61 10 -87 13 -117 17 -148 30 -223 8 -44 17 -106 19
-138 3 -32 10 -66 15 -75 7 -15 14 -42 28 -116 2 -10 12 -53 23 -95 10 -42 21
-87 24 -101 17 -84 41 -168 72 -257 22 -62 34 -111 31 -125 -8 -31 -66 -64
-237 -133 -80 -32 -172 -70 -205 -85 -33 -15 -71 -31 -85 -35 -14 -4 -74 -31
-135 -60 -119 -58 -173 -104 -218 -186 -77 -142 -45 -352 72 -466 58 -57 172
-105 256 -109 82 -4 168 22 426 129 85 35 170 70 189 77 19 7 73 31 120 53
137 64 157 58 227 -73 90 -166 123 -221 223 -370 237 -353 409 -560 748 -897
183 -183 297 -281 513 -442 74 -55 140 -105 146 -111 7 -6 86 -58 175 -116 90
-58 174 -114 188 -123 26 -18 117 -69 332 -185 21 -11 47 -30 58 -42 l21 -21
-42 -104 c-23 -57 -47 -117 -55 -134 -14 -30 -106 -254 -171 -415 -83 -208
-28 -399 147 -509 74 -47 142 -64 224 -57 152 13 173 22 268 120 57 60 111
169 219 446 28 74 56 139 61 144 4 6 8 16 8 23 0 7 18 51 41 98 47 100 62 109
135 90 27 -8 92 -25 144 -39 108 -30 240 -62 285 -69 17 -3 53 -10 80 -16 67
-14 84 -17 125 -25 19 -3 44 -8 56 -10 12 -2 45 -7 75 -11 30 -4 56 -8 59 -10
3 -2 43 -6 90 -10 47 -4 93 -9 103 -11 46 -8 364 -18 642 -18 324 -1 403 3
600 34 44 7 87 13 95 15 44 8 100 16 140 20 25 3 54 7 65 9 11 2 58 11 105 20
47 9 162 36 255 62 94 25 177 47 185 49 8 3 51 15 95 28 131 40 163 43 189 18
26 -25 35 -43 147 -316 45 -110 92 -222 104 -250 13 -27 33 -76 45 -108 30
-76 91 -136 185 -183 126 -62 238 -58 375 12 56 29 88 57 123 112 45 69 58
118 58 217 -1 117 -20 183 -117 393 -19 41 -34 76 -34 78 0 3 -8 24 -18 47
-11 23 -29 69 -41 102 -12 33 -35 94 -52 136 -16 41 -29 83 -29 92 0 19 34 43
245 172 211 129 550 359 595 405 3 3 28 23 55 45 244 195 707 657 834 832 16
22 59 78 96 124 37 46 87 113 112 149 24 36 62 90 83 120 22 30 48 71 57 90 9
19 32 57 51 85 20 27 71 115 115 195 134 244 150 270 173 276 20 5 137 -39
319 -120 28 -12 66 -28 85 -36 19 -7 82 -33 139 -57 129 -55 205 -73 301 -73
147 0 268 66 328 178 61 114 72 238 32 345 -37 99 -181 225 -301 262 -24 7
-86 32 -137 54 -51 23 -98 41 -103 41 -6 0 -38 13 -72 29 -135 64 -201 91
-222 91 -33 0 -78 56 -72 89 2 14 18 78 35 141 26 97 65 258 77 319 2 9 11 52
20 96 9 44 18 87 20 95 4 18 22 150 29 205 3 22 8 65 11 95 4 30 9 66 11 80
22 133 25 989 3 1130 -4 25 -9 72 -13 105 -23 220 -28 249 -95 558 -46 206
-113 451 -147 532 -13 33 -13 36 13 65 29 32 51 43 293 141 389 159 441 186
518 268 74 78 85 109 87 241 3 126 -4 154 -48 219 -46 68 -96 110 -172 147
-64 32 -76 34 -165 34 -54 -1 -110 -7 -130 -14 -60 -23 -273 -112 -321 -134
-49 -23 -148 -63 -164 -67 -20 -4 -51 -17 -127 -52 -42 -19 -87 -33 -99 -31
-22 3 -84 93 -154 224 -33 61 -208 327 -305 464 -221 310 -590 706 -900 966
-170 142 -421 324 -635 460 -194 123 -264 163 -372 214 -34 17 -78 43 -96 60
l-35 30 29 83 c15 46 55 145 89 220 33 75 60 139 60 143 0 3 7 20 14 37 8 18
26 65 40 106 14 40 30 79 34 85 9 12 42 113 46 143 7 45 -62 235 -102 280 -24
27 -118 91 -170 114 -48 22 -162 33 -203 20z"/>
</g>
</svg>
